<svg width="321" height="30" viewBox="0 0 321 30" fill="none" xmlns="http://www.w3.org/2000/svg">
<path d="M0 10C0 4.47715 4.47715 0 10 0H311C316.523 0 321 4.47715 321 10V30H0V10Z" fill="#B0E355"/>
<path d="M46.2012 15.8301V19H44.7188V10.4688H47.9824C48.9355 10.4688 49.6914 10.7168 50.25 11.2129C50.8125 11.709 51.0938 12.3652 51.0938 13.1816C51.0938 14.0176 50.8184 14.668 50.2676 15.1328C49.7207 15.5977 48.9531 15.8301 47.9648 15.8301H46.2012ZM46.2012 14.6406H47.9824C48.5098 14.6406 48.9121 14.5176 49.1895 14.2715C49.4668 14.0215 49.6055 13.6621 49.6055 13.1934C49.6055 12.7324 49.4648 12.3652 49.1836 12.0918C48.9023 11.8145 48.5156 11.6719 48.0234 11.6641H46.2012V14.6406ZM53.7715 19H52.3477V12.6602H53.7715V19ZM52.2598 11.0137C52.2598 10.7949 52.3281 10.6133 52.4648 10.4688C52.6055 10.3242 52.8047 10.252 53.0625 10.252C53.3203 10.252 53.5195 10.3242 53.6602 10.4688C53.8008 10.6133 53.8711 10.7949 53.8711 11.0137C53.8711 11.2285 53.8008 11.4082 53.6602 11.5527C53.5195 11.6934 53.3203 11.7637 53.0625 11.7637C52.8047 11.7637 52.6055 11.6934 52.4648 11.5527C52.3281 11.4082 52.2598 11.2285 52.2598 11.0137ZM57.9316 17.9805C58.2871 17.9805 58.582 17.877 58.8164 17.6699C59.0508 17.4629 59.1758 17.207 59.1914 16.9023H60.5332C60.5176 17.2969 60.3945 17.666 60.1641 18.0098C59.9336 18.3496 59.6211 18.6191 59.2266 18.8184C58.832 19.0176 58.4062 19.1172 57.9492 19.1172C57.0625 19.1172 56.3594 18.8301 55.8398 18.2559C55.3203 17.6816 55.0605 16.8887 55.0605 15.877V15.7305C55.0605 14.7656 55.3184 13.9941 55.834 13.416C56.3496 12.834 57.0527 12.543 57.9434 12.543C58.6973 12.543 59.3105 12.7637 59.7832 13.2051C60.2598 13.6426 60.5098 14.2188 60.5332 14.9336H59.1914C59.1758 14.5703 59.0508 14.2715 58.8164 14.0371C58.5859 13.8027 58.291 13.6855 57.9316 13.6855C57.4707 13.6855 57.1152 13.8535 56.8652 14.1895C56.6152 14.5215 56.4883 15.0273 56.4844 15.707V15.9355C56.4844 16.623 56.6074 17.1367 56.8535 17.4766C57.1035 17.8125 57.4629 17.9805 57.9316 17.9805ZM63.668 16.2812L63.0352 16.9316V19H61.6113V10H63.0352V15.1914L63.4805 14.6348L65.2324 12.6602H66.9434L64.5879 15.3027L67.1953 19H65.5488L63.668 16.2812Z" fill="#122504"/>
<path d="M116 15L112 11M116 15L112 19M116 15H87.5" stroke="#122504" stroke-width="0.582237"/>
<path d="M143.764 14.957C143.764 15.793 143.619 16.5273 143.33 17.1602C143.041 17.7891 142.627 18.2734 142.088 18.6133C141.553 18.9492 140.936 19.1172 140.236 19.1172C139.545 19.1172 138.928 18.9492 138.385 18.6133C137.846 18.2734 137.428 17.791 137.131 17.166C136.838 16.541 136.689 15.8203 136.686 15.0039V14.5234C136.686 13.6914 136.832 12.957 137.125 12.3203C137.422 11.6836 137.838 11.1973 138.373 10.8613C138.912 10.5215 139.529 10.3516 140.225 10.3516C140.92 10.3516 141.535 10.5195 142.07 10.8555C142.609 11.1875 143.025 11.668 143.318 12.2969C143.611 12.9219 143.76 13.6504 143.764 14.4824V14.957ZM142.281 14.5117C142.281 13.5664 142.102 12.8418 141.742 12.3379C141.387 11.834 140.881 11.582 140.225 11.582C139.584 11.582 139.082 11.834 138.719 12.3379C138.359 12.8379 138.176 13.5469 138.168 14.4648V14.957C138.168 15.8945 138.35 16.6191 138.713 17.1309C139.08 17.6426 139.588 17.8984 140.236 17.8984C140.893 17.8984 141.396 17.6484 141.748 17.1484C142.104 16.6484 142.281 15.918 142.281 14.957V14.5117ZM148.422 13.9609C148.234 13.9297 148.041 13.9141 147.842 13.9141C147.189 13.9141 146.75 14.1641 146.523 14.6641V19H145.1V12.6602H146.459L146.494 13.3691C146.838 12.8184 147.314 12.543 147.924 12.543C148.127 12.543 148.295 12.5703 148.428 12.625L148.422 13.9609ZM148.938 15.7832C148.938 14.8066 149.164 14.0234 149.617 13.4336C150.07 12.8398 150.678 12.543 151.439 12.543C152.111 12.543 152.654 12.7773 153.068 13.2461V10H154.492V19H153.203L153.133 18.3438C152.707 18.8594 152.139 19.1172 151.428 19.1172C150.686 19.1172 150.084 18.8184 149.623 18.2207C149.166 17.623 148.938 16.8105 148.938 15.7832ZM150.361 15.9062C150.361 16.5508 150.484 17.0547 150.73 17.418C150.98 17.7773 151.334 17.957 151.791 17.957C152.373 17.957 152.799 17.6973 153.068 17.1777V14.4707C152.807 13.9629 152.385 13.709 151.803 13.709C151.342 13.709 150.986 13.8926 150.736 14.2598C150.486 14.623 150.361 15.1719 150.361 15.9062ZM158.77 19.1172C157.867 19.1172 157.135 18.834 156.572 18.2676C156.014 17.6973 155.734 16.9395 155.734 15.9941V15.8184C155.734 15.1855 155.855 14.6211 156.098 14.125C156.344 13.625 156.688 13.2363 157.129 12.959C157.57 12.6816 158.062 12.543 158.605 12.543C159.469 12.543 160.135 12.8184 160.604 13.3691C161.076 13.9199 161.312 14.6992 161.312 15.707V16.2812H157.17C157.213 16.8047 157.387 17.2188 157.691 17.5234C158 17.8281 158.387 17.9805 158.852 17.9805C159.504 17.9805 160.035 17.7168 160.445 17.1895L161.213 17.9219C160.959 18.3008 160.619 18.5957 160.193 18.8066C159.771 19.0137 159.297 19.1172 158.77 19.1172ZM158.6 13.6855C158.209 13.6855 157.893 13.8223 157.65 14.0957C157.412 14.3691 157.26 14.75 157.193 15.2383H159.906V15.1328C159.875 14.6562 159.748 14.2969 159.525 14.0547C159.303 13.8086 158.994 13.6855 158.6 13.6855ZM165.742 13.9609C165.555 13.9297 165.361 13.9141 165.162 13.9141C164.51 13.9141 164.07 14.1641 163.844 14.6641V19H162.42V12.6602H163.779L163.814 13.3691C164.158 12.8184 164.635 12.543 165.244 12.543C165.447 12.543 165.615 12.5703 165.748 12.625L165.742 13.9609Z" fill="#122504"/>
<path d="M214.5 15L210.5 11M214.5 15L210.5 19M214.5 15H186" stroke="#122504" stroke-width="0.582237"/>
<path d="M238.984 15.7129H237.332V19H235.85V10.4688H238.85C239.834 10.4688 240.594 10.6895 241.129 11.1309C241.664 11.5723 241.932 12.2109 241.932 13.0469C241.932 13.6172 241.793 14.0957 241.516 14.4824C241.242 14.8652 240.859 15.1602 240.367 15.3672L242.283 18.9238V19H240.695L238.984 15.7129ZM237.332 14.5234H238.855C239.355 14.5234 239.746 14.3984 240.027 14.1484C240.309 13.8945 240.449 13.5488 240.449 13.1113C240.449 12.6543 240.318 12.3008 240.057 12.0508C239.799 11.8008 239.412 11.6719 238.896 11.6641H237.332V14.5234ZM245.992 19.1172C245.09 19.1172 244.357 18.834 243.795 18.2676C243.236 17.6973 242.957 16.9395 242.957 15.9941V15.8184C242.957 15.1855 243.078 14.6211 243.32 14.125C243.566 13.625 243.91 13.2363 244.352 12.959C244.793 12.6816 245.285 12.543 245.828 12.543C246.691 12.543 247.357 12.8184 247.826 13.3691C248.299 13.9199 248.535 14.6992 248.535 15.707V16.2812H244.393C244.436 16.8047 244.609 17.2188 244.914 17.5234C245.223 17.8281 245.609 17.9805 246.074 17.9805C246.727 17.9805 247.258 17.7168 247.668 17.1895L248.436 17.9219C248.182 18.3008 247.842 18.5957 247.416 18.8066C246.994 19.0137 246.52 19.1172 245.992 19.1172ZM245.822 13.6855C245.432 13.6855 245.115 13.8223 244.873 14.0957C244.635 14.3691 244.482 14.75 244.416 15.2383H247.129V15.1328C247.098 14.6562 246.971 14.2969 246.748 14.0547C246.525 13.8086 246.217 13.6855 245.822 13.6855ZM252.25 17.9805C252.605 17.9805 252.9 17.877 253.135 17.6699C253.369 17.4629 253.494 17.207 253.51 16.9023H254.852C254.836 17.2969 254.713 17.666 254.482 18.0098C254.252 18.3496 253.939 18.6191 253.545 18.8184C253.15 19.0176 252.725 19.1172 252.268 19.1172C251.381 19.1172 250.678 18.8301 250.158 18.2559C249.639 17.6816 249.379 16.8887 249.379 15.877V15.7305C249.379 14.7656 249.637 13.9941 250.152 13.416C250.668 12.834 251.371 12.543 252.262 12.543C253.016 12.543 253.629 12.7637 254.102 13.2051C254.578 13.6426 254.828 14.2188 254.852 14.9336H253.51C253.494 14.5703 253.369 14.2715 253.135 14.0371C252.904 13.8027 252.609 13.6855 252.25 13.6855C251.789 13.6855 251.434 13.8535 251.184 14.1895C250.934 14.5215 250.807 15.0273 250.803 15.707V15.9355C250.803 16.623 250.926 17.1367 251.172 17.4766C251.422 17.8125 251.781 17.9805 252.25 17.9805ZM258.719 19.1172C257.816 19.1172 257.084 18.834 256.521 18.2676C255.963 17.6973 255.684 16.9395 255.684 15.9941V15.8184C255.684 15.1855 255.805 14.6211 256.047 14.125C256.293 13.625 256.637 13.2363 257.078 12.959C257.52 12.6816 258.012 12.543 258.555 12.543C259.418 12.543 260.084 12.8184 260.553 13.3691C261.025 13.9199 261.262 14.6992 261.262 15.707V16.2812H257.119C257.162 16.8047 257.336 17.2188 257.641 17.5234C257.949 17.8281 258.336 17.9805 258.801 17.9805C259.453 17.9805 259.984 17.7168 260.395 17.1895L261.162 17.9219C260.908 18.3008 260.568 18.5957 260.143 18.8066C259.721 19.0137 259.246 19.1172 258.719 19.1172ZM258.549 13.6855C258.158 13.6855 257.842 13.8223 257.6 14.0957C257.361 14.3691 257.209 14.75 257.143 15.2383H259.855V15.1328C259.824 14.6562 259.697 14.2969 259.475 14.0547C259.252 13.8086 258.943 13.6855 258.549 13.6855ZM263.887 19H262.463V12.6602H263.887V19ZM262.375 11.0137C262.375 10.7949 262.443 10.6133 262.58 10.4688C262.721 10.3242 262.92 10.252 263.178 10.252C263.436 10.252 263.635 10.3242 263.775 10.4688C263.916 10.6133 263.986 10.7949 263.986 11.0137C263.986 11.2285 263.916 11.4082 263.775 11.5527C263.635 11.6934 263.436 11.7637 263.178 11.7637C262.92 11.7637 262.721 11.6934 262.58 11.5527C262.443 11.4082 262.375 11.2285 262.375 11.0137ZM267.678 17.1953L269.02 12.6602H270.49L268.293 19H267.057L264.842 12.6602H266.318L267.678 17.1953ZM274.094 19.1172C273.191 19.1172 272.459 18.834 271.896 18.2676C271.338 17.6973 271.059 16.9395 271.059 15.9941V15.8184C271.059 15.1855 271.18 14.6211 271.422 14.125C271.668 13.625 272.012 13.2363 272.453 12.959C272.895 12.6816 273.387 12.543 273.93 12.543C274.793 12.543 275.459 12.8184 275.928 13.3691C276.4 13.9199 276.637 14.6992 276.637 15.707V16.2812H272.494C272.537 16.8047 272.711 17.2188 273.016 17.5234C273.324 17.8281 273.711 17.9805 274.176 17.9805C274.828 17.9805 275.359 17.7168 275.77 17.1895L276.537 17.9219C276.283 18.3008 275.943 18.5957 275.518 18.8066C275.096 19.0137 274.621 19.1172 274.094 19.1172ZM273.924 13.6855C273.533 13.6855 273.217 13.8223 272.975 14.0957C272.736 14.3691 272.584 14.75 272.518 15.2383H275.23V15.1328C275.199 14.6562 275.072 14.2969 274.85 14.0547C274.627 13.8086 274.318 13.6855 273.924 13.6855Z" fill="#122504"/>
</svg>