<svg width="709" height="32" viewBox="0 0 709 32" fill="none" xmlns="http://www.w3.org/2000/svg">
<path d="M0 10C0 4.47715 4.47715 0 10 0H699C704.523 0 709 4.47715 709 10V32H0V10Z" fill="#B0E355"/>
<path d="M103.651 17.3018V21H101.922V11.0469H105.729C106.841 11.0469 107.723 11.3363 108.375 11.915C109.031 12.4938 109.359 13.2594 109.359 14.2119C109.359 15.1872 109.038 15.946 108.396 16.4883C107.757 17.0306 106.862 17.3018 105.709 17.3018H103.651ZM103.651 15.9141H105.729C106.345 15.9141 106.814 15.7705 107.138 15.4834C107.461 15.1917 107.623 14.7725 107.623 14.2256C107.623 13.6878 107.459 13.2594 107.131 12.9404C106.803 12.6169 106.352 12.4505 105.777 12.4414H103.651V15.9141ZM112.483 21H110.822V13.6035H112.483V21ZM110.72 11.6826C110.72 11.4274 110.799 11.2155 110.959 11.0469C111.123 10.8783 111.355 10.7939 111.656 10.7939C111.957 10.7939 112.189 10.8783 112.354 11.0469C112.518 11.2155 112.6 11.4274 112.6 11.6826C112.6 11.9333 112.518 12.1429 112.354 12.3115C112.189 12.4756 111.957 12.5576 111.656 12.5576C111.355 12.5576 111.123 12.4756 110.959 12.3115C110.799 12.1429 110.72 11.9333 110.72 11.6826ZM117.337 19.8105C117.752 19.8105 118.096 19.6898 118.369 19.4482C118.643 19.2067 118.788 18.9082 118.807 18.5527H120.372C120.354 19.013 120.21 19.4437 119.941 19.8447C119.673 20.2412 119.308 20.5557 118.848 20.7881C118.387 21.0205 117.891 21.1367 117.357 21.1367C116.323 21.1367 115.503 20.8018 114.896 20.1318C114.29 19.4619 113.987 18.5368 113.987 17.3564V17.1855C113.987 16.0599 114.288 15.1598 114.89 14.4854C115.491 13.8063 116.312 13.4668 117.351 13.4668C118.23 13.4668 118.946 13.7243 119.497 14.2393C120.053 14.7497 120.345 15.4219 120.372 16.2559H118.807C118.788 15.832 118.643 15.4834 118.369 15.21C118.1 14.9365 117.756 14.7998 117.337 14.7998C116.799 14.7998 116.384 14.9958 116.093 15.3877C115.801 15.7751 115.653 16.3652 115.648 17.1582V17.4248C115.648 18.2269 115.792 18.8262 116.079 19.2227C116.371 19.6146 116.79 19.8105 117.337 19.8105ZM124.029 17.8281L123.291 18.5869V21H121.63V10.5H123.291V16.5566L123.811 15.9072L125.854 13.6035H127.851L125.103 16.6865L128.145 21H126.224L124.029 17.8281Z" fill="#122504"/>
<path d="M241.5 16L237.5 12M241.5 16L237.5 20M241.5 16H213" stroke="#122504" stroke-width="0.582237"/>
<path d="M335.058 16.2832C335.058 17.2585 334.889 18.1152 334.552 18.8535C334.215 19.5872 333.731 20.1523 333.103 20.5488C332.478 20.9408 331.758 21.1367 330.942 21.1367C330.136 21.1367 329.416 20.9408 328.782 20.5488C328.153 20.1523 327.666 19.5895 327.319 18.8604C326.978 18.1312 326.804 17.2904 326.8 16.3379V15.7773C326.8 14.8066 326.971 13.9499 327.312 13.207C327.659 12.4642 328.144 11.8968 328.769 11.5049C329.397 11.1084 330.118 10.9102 330.929 10.9102C331.74 10.9102 332.458 11.1061 333.082 11.498C333.711 11.8854 334.196 12.446 334.538 13.1797C334.88 13.9089 335.053 14.7588 335.058 15.7295V16.2832ZM333.328 15.7637C333.328 14.6608 333.118 13.8154 332.699 13.2275C332.285 12.6396 331.694 12.3457 330.929 12.3457C330.181 12.3457 329.596 12.6396 329.172 13.2275C328.753 13.8109 328.538 14.638 328.529 15.709V16.2832C328.529 17.377 328.741 18.2223 329.165 18.8193C329.593 19.4163 330.186 19.7148 330.942 19.7148C331.708 19.7148 332.296 19.4232 332.706 18.8398C333.121 18.2565 333.328 17.4043 333.328 16.2832V15.7637ZM340.492 15.1211C340.273 15.0846 340.048 15.0664 339.815 15.0664C339.054 15.0664 338.542 15.3581 338.277 15.9414V21H336.616V13.6035H338.202L338.243 14.4307C338.644 13.7881 339.2 13.4668 339.911 13.4668C340.148 13.4668 340.344 13.4987 340.499 13.5625L340.492 15.1211ZM341.094 17.2471C341.094 16.1077 341.358 15.194 341.887 14.5059C342.415 13.8132 343.124 13.4668 344.013 13.4668C344.797 13.4668 345.43 13.7402 345.913 14.2871V10.5H347.574V21H346.07L345.988 20.2344C345.492 20.8359 344.828 21.1367 343.999 21.1367C343.133 21.1367 342.431 20.7881 341.894 20.0908C341.36 19.3936 341.094 18.4456 341.094 17.2471ZM342.755 17.3906C342.755 18.1426 342.898 18.7305 343.186 19.1543C343.477 19.5736 343.89 19.7832 344.423 19.7832C345.102 19.7832 345.599 19.4801 345.913 18.874V15.7158C345.608 15.1234 345.116 14.8271 344.437 14.8271C343.899 14.8271 343.484 15.0413 343.192 15.4697C342.901 15.8936 342.755 16.5339 342.755 17.3906ZM352.564 21.1367C351.512 21.1367 350.657 20.8063 350.001 20.1455C349.349 19.4801 349.023 18.596 349.023 17.4932V17.2881C349.023 16.5498 349.165 15.8913 349.447 15.3125C349.734 14.7292 350.135 14.2757 350.65 13.9521C351.165 13.6286 351.74 13.4668 352.373 13.4668C353.38 13.4668 354.157 13.7881 354.704 14.4307C355.256 15.0732 355.531 15.9824 355.531 17.1582V17.8281H350.698C350.748 18.4388 350.951 18.9219 351.307 19.2773C351.667 19.6328 352.118 19.8105 352.66 19.8105C353.421 19.8105 354.041 19.5029 354.52 18.8877L355.415 19.7422C355.119 20.1842 354.722 20.5283 354.226 20.7744C353.733 21.016 353.18 21.1367 352.564 21.1367ZM352.366 14.7998C351.91 14.7998 351.541 14.9593 351.259 15.2783C350.981 15.5973 350.803 16.0417 350.726 16.6113H353.891V16.4883C353.854 15.9323 353.706 15.513 353.446 15.2305C353.187 14.9434 352.826 14.7998 352.366 14.7998ZM360.699 15.1211C360.48 15.0846 360.255 15.0664 360.022 15.0664C359.261 15.0664 358.749 15.3581 358.484 15.9414V21H356.823V13.6035H358.409L358.45 14.4307C358.851 13.7881 359.407 13.4668 360.118 13.4668C360.355 13.4668 360.551 13.4987 360.706 13.5625L360.699 15.1211Z" fill="#122504"/>
<path d="M474 16L470 12M474 16L470 20M474 16H445.5" stroke="#122504" stroke-width="0.582237"/>
<path d="M563.648 17.165H561.721V21H559.991V11.0469H563.491C564.64 11.0469 565.526 11.3044 566.15 11.8193C566.775 12.3343 567.087 13.0794 567.087 14.0547C567.087 14.7201 566.925 15.2783 566.602 15.7295C566.283 16.1761 565.836 16.5202 565.262 16.7617L567.497 20.9111V21H565.645L563.648 17.165ZM561.721 15.7773H563.498C564.081 15.7773 564.537 15.6315 564.865 15.3398C565.193 15.0436 565.357 14.6403 565.357 14.1299C565.357 13.5967 565.205 13.1842 564.899 12.8926C564.599 12.6009 564.147 12.4505 563.546 12.4414H561.721V15.7773ZM571.824 21.1367C570.771 21.1367 569.917 20.8063 569.261 20.1455C568.609 19.4801 568.283 18.596 568.283 17.4932V17.2881C568.283 16.5498 568.424 15.8913 568.707 15.3125C568.994 14.7292 569.395 14.2757 569.91 13.9521C570.425 13.6286 570.999 13.4668 571.633 13.4668C572.64 13.4668 573.417 13.7881 573.964 14.4307C574.515 15.0732 574.791 15.9824 574.791 17.1582V17.8281H569.958C570.008 18.4388 570.211 18.9219 570.566 19.2773C570.926 19.6328 571.378 19.8105 571.92 19.8105C572.681 19.8105 573.301 19.5029 573.779 18.8877L574.675 19.7422C574.379 20.1842 573.982 20.5283 573.485 20.7744C572.993 21.016 572.439 21.1367 571.824 21.1367ZM571.626 14.7998C571.17 14.7998 570.801 14.9593 570.519 15.2783C570.241 15.5973 570.063 16.0417 569.985 16.6113H573.15V16.4883C573.114 15.9323 572.966 15.513 572.706 15.2305C572.446 14.9434 572.086 14.7998 571.626 14.7998ZM579.125 19.8105C579.54 19.8105 579.884 19.6898 580.157 19.4482C580.431 19.2067 580.576 18.9082 580.595 18.5527H582.16C582.142 19.013 581.998 19.4437 581.729 19.8447C581.461 20.2412 581.096 20.5557 580.636 20.7881C580.175 21.0205 579.679 21.1367 579.146 21.1367C578.111 21.1367 577.291 20.8018 576.685 20.1318C576.078 19.4619 575.775 18.5368 575.775 17.3564V17.1855C575.775 16.0599 576.076 15.1598 576.678 14.4854C577.279 13.8063 578.1 13.4668 579.139 13.4668C580.018 13.4668 580.734 13.7243 581.285 14.2393C581.841 14.7497 582.133 15.4219 582.16 16.2559H580.595C580.576 15.832 580.431 15.4834 580.157 15.21C579.888 14.9365 579.544 14.7998 579.125 14.7998C578.587 14.7998 578.173 14.9958 577.881 15.3877C577.589 15.7751 577.441 16.3652 577.437 17.1582V17.4248C577.437 18.2269 577.58 18.8262 577.867 19.2227C578.159 19.6146 578.578 19.8105 579.125 19.8105ZM586.672 21.1367C585.619 21.1367 584.765 20.8063 584.108 20.1455C583.457 19.4801 583.131 18.596 583.131 17.4932V17.2881C583.131 16.5498 583.272 15.8913 583.555 15.3125C583.842 14.7292 584.243 14.2757 584.758 13.9521C585.273 13.6286 585.847 13.4668 586.48 13.4668C587.488 13.4668 588.265 13.7881 588.812 14.4307C589.363 15.0732 589.639 15.9824 589.639 17.1582V17.8281H584.806C584.856 18.4388 585.059 18.9219 585.414 19.2773C585.774 19.6328 586.225 19.8105 586.768 19.8105C587.529 19.8105 588.148 19.5029 588.627 18.8877L589.522 19.7422C589.226 20.1842 588.83 20.5283 588.333 20.7744C587.841 21.016 587.287 21.1367 586.672 21.1367ZM586.474 14.7998C586.018 14.7998 585.649 14.9593 585.366 15.2783C585.088 15.5973 584.91 16.0417 584.833 16.6113H587.998V16.4883C587.962 15.9323 587.813 15.513 587.554 15.2305C587.294 14.9434 586.934 14.7998 586.474 14.7998ZM592.701 21H591.04V13.6035H592.701V21ZM590.938 11.6826C590.938 11.4274 591.017 11.2155 591.177 11.0469C591.341 10.8783 591.573 10.7939 591.874 10.7939C592.175 10.7939 592.407 10.8783 592.571 11.0469C592.735 11.2155 592.817 11.4274 592.817 11.6826C592.817 11.9333 592.735 12.1429 592.571 12.3115C592.407 12.4756 592.175 12.5576 591.874 12.5576C591.573 12.5576 591.341 12.4756 591.177 12.3115C591.017 12.1429 590.938 11.9333 590.938 11.6826ZM597.124 18.8945L598.689 13.6035H600.405L597.842 21H596.399L593.815 13.6035H595.538L597.124 18.8945ZM604.609 21.1367C603.557 21.1367 602.702 20.8063 602.046 20.1455C601.394 19.4801 601.068 18.596 601.068 17.4932V17.2881C601.068 16.5498 601.21 15.8913 601.492 15.3125C601.779 14.7292 602.18 14.2757 602.695 13.9521C603.21 13.6286 603.785 13.4668 604.418 13.4668C605.425 13.4668 606.202 13.7881 606.749 14.4307C607.3 15.0732 607.576 15.9824 607.576 17.1582V17.8281H602.743C602.793 18.4388 602.996 18.9219 603.352 19.2773C603.712 19.6328 604.163 19.8105 604.705 19.8105C605.466 19.8105 606.086 19.5029 606.564 18.8877L607.46 19.7422C607.164 20.1842 606.767 20.5283 606.271 20.7744C605.778 21.016 605.225 21.1367 604.609 21.1367ZM604.411 14.7998C603.955 14.7998 603.586 14.9593 603.304 15.2783C603.026 15.5973 602.848 16.0417 602.771 16.6113H605.936V16.4883C605.899 15.9323 605.751 15.513 605.491 15.2305C605.231 14.9434 604.871 14.7998 604.411 14.7998Z" fill="#122504"/>
</svg>