<svg width="1218" height="43" viewBox="0 0 1218 43" fill="none" xmlns="http://www.w3.org/2000/svg">
<path d="M0.5 10C0.5 4.47715 4.97715 0 10.5 0H1207.5C1213.02 0 1217.5 4.47715 1217.5 10V43H0.5V10Z" fill="#B0E355"/>
<path d="M180.502 22.7168V28H178.031V13.7812H183.471C185.059 13.7812 186.319 14.1947 187.25 15.0215C188.188 15.8483 188.656 16.9421 188.656 18.3027C188.656 19.696 188.197 20.7799 187.279 21.5547C186.368 22.3294 185.089 22.7168 183.441 22.7168H180.502ZM180.502 20.7344H183.471C184.35 20.7344 185.02 20.5293 185.482 20.1191C185.945 19.7025 186.176 19.1035 186.176 18.3223C186.176 17.554 185.941 16.9421 185.473 16.4863C185.004 16.0241 184.359 15.7865 183.539 15.7734H180.502V20.7344ZM193.119 28H190.746V17.4336H193.119V28ZM190.6 14.6895C190.6 14.3249 190.714 14.0221 190.941 13.7812C191.176 13.5404 191.508 13.4199 191.938 13.4199C192.367 13.4199 192.699 13.5404 192.934 13.7812C193.168 14.0221 193.285 14.3249 193.285 14.6895C193.285 15.0475 193.168 15.347 192.934 15.5879C192.699 15.8223 192.367 15.9395 191.938 15.9395C191.508 15.9395 191.176 15.8223 190.941 15.5879C190.714 15.347 190.6 15.0475 190.6 14.6895ZM200.053 26.3008C200.645 26.3008 201.137 26.1283 201.527 25.7832C201.918 25.4382 202.126 25.0117 202.152 24.5039H204.389C204.363 25.1615 204.158 25.7767 203.773 26.3496C203.389 26.916 202.868 27.3652 202.211 27.6973C201.553 28.0293 200.844 28.1953 200.082 28.1953C198.604 28.1953 197.432 27.7168 196.566 26.7598C195.701 25.8027 195.268 24.4811 195.268 22.7949V22.5508C195.268 20.9427 195.697 19.6569 196.557 18.6934C197.416 17.7233 198.588 17.2383 200.072 17.2383C201.329 17.2383 202.351 17.6061 203.139 18.3418C203.933 19.071 204.35 20.0312 204.389 21.2227H202.152C202.126 20.6172 201.918 20.1191 201.527 19.7285C201.143 19.3379 200.652 19.1426 200.053 19.1426C199.285 19.1426 198.692 19.4225 198.275 19.9824C197.859 20.5358 197.647 21.3789 197.641 22.5117V22.8926C197.641 24.0384 197.846 24.8945 198.256 25.4609C198.673 26.0208 199.271 26.3008 200.053 26.3008ZM209.613 23.4688L208.559 24.5527V28H206.186V13H208.559V21.6523L209.301 20.7246L212.221 17.4336H215.072L211.146 21.8379L215.492 28H212.748L209.613 23.4688Z" fill="#122504"/>
<path d="M406 21.5L402 17.5M406 21.5L402 25.5M406 21.5H377.5" stroke="#122504"/>
<path d="M580.939 21.2617C580.939 22.6549 580.699 23.8789 580.217 24.9336C579.735 25.9818 579.045 26.7891 578.146 27.3555C577.255 27.9154 576.226 28.1953 575.061 28.1953C573.908 28.1953 572.88 27.9154 571.975 27.3555C571.076 26.7891 570.38 25.985 569.885 24.9434C569.396 23.9017 569.149 22.7005 569.143 21.3398V20.5391C569.143 19.1523 569.387 17.9284 569.875 16.8672C570.37 15.806 571.063 14.9954 571.955 14.4355C572.854 13.8691 573.882 13.5859 575.041 13.5859C576.2 13.5859 577.225 13.8659 578.117 14.4258C579.016 14.9792 579.709 15.7799 580.197 16.8281C580.686 17.8698 580.933 19.084 580.939 20.4707V21.2617ZM578.469 20.5195C578.469 18.944 578.169 17.7363 577.57 16.8965C576.978 16.0566 576.135 15.6367 575.041 15.6367C573.973 15.6367 573.137 16.0566 572.531 16.8965C571.932 17.7298 571.626 18.9115 571.613 20.4414V21.2617C571.613 22.8242 571.916 24.0319 572.521 24.8848C573.133 25.7376 573.98 26.1641 575.061 26.1641C576.154 26.1641 576.994 25.7474 577.58 24.9141C578.173 24.0807 578.469 22.8633 578.469 21.2617V20.5195ZM588.703 19.6016C588.391 19.5495 588.068 19.5234 587.736 19.5234C586.649 19.5234 585.917 19.9401 585.539 20.7734V28H583.166V17.4336H585.432L585.49 18.6152C586.063 17.6973 586.857 17.2383 587.873 17.2383C588.212 17.2383 588.492 17.2839 588.713 17.375L588.703 19.6016ZM589.562 22.6387C589.562 21.0111 589.94 19.7057 590.695 18.7227C591.451 17.7331 592.463 17.2383 593.732 17.2383C594.852 17.2383 595.757 17.6289 596.447 18.4102V13H598.82V28H596.672L596.555 26.9062C595.845 27.7656 594.898 28.1953 593.713 28.1953C592.476 28.1953 591.473 27.6973 590.705 26.7012C589.943 25.7051 589.562 24.3509 589.562 22.6387ZM591.936 22.8438C591.936 23.918 592.141 24.7578 592.551 25.3633C592.967 25.9622 593.557 26.2617 594.318 26.2617C595.288 26.2617 595.998 25.8288 596.447 24.9629V20.4512C596.011 19.6048 595.308 19.1816 594.338 19.1816C593.57 19.1816 592.977 19.4876 592.561 20.0996C592.144 20.7051 591.936 21.6198 591.936 22.8438ZM605.949 28.1953C604.445 28.1953 603.225 27.7233 602.287 26.7793C601.356 25.8288 600.891 24.5658 600.891 22.9902V22.6973C600.891 21.6426 601.092 20.7018 601.496 19.875C601.906 19.0417 602.479 18.3939 603.215 17.9316C603.951 17.4694 604.771 17.2383 605.676 17.2383C607.115 17.2383 608.225 17.6973 609.006 18.6152C609.794 19.5332 610.188 20.832 610.188 22.5117V23.4688H603.283C603.355 24.3411 603.645 25.0312 604.152 25.5391C604.667 26.0469 605.311 26.3008 606.086 26.3008C607.173 26.3008 608.059 25.8613 608.742 24.9824L610.021 26.2031C609.598 26.8346 609.032 27.3262 608.322 27.6777C607.619 28.0228 606.828 28.1953 605.949 28.1953ZM605.666 19.1426C605.015 19.1426 604.488 19.3704 604.084 19.8262C603.687 20.2819 603.433 20.9167 603.322 21.7305H607.844V21.5547C607.792 20.7604 607.58 20.1615 607.209 19.7578C606.838 19.3477 606.324 19.1426 605.666 19.1426ZM617.57 19.6016C617.258 19.5495 616.936 19.5234 616.604 19.5234C615.516 19.5234 614.784 19.9401 614.406 20.7734V28H612.033V17.4336H614.299L614.357 18.6152C614.93 17.6973 615.725 17.2383 616.74 17.2383C617.079 17.2383 617.359 17.2839 617.58 17.375L617.57 19.6016Z" fill="#122504"/>
<path d="M808.5 21.5L804.5 17.5M808.5 21.5L804.5 25.5M808.5 21.5H780" stroke="#122504"/>
<path d="M977.641 22.5215H974.887V28H972.416V13.7812H977.416C979.057 13.7812 980.323 14.1491 981.215 14.8848C982.107 15.6204 982.553 16.6849 982.553 18.0781C982.553 19.0286 982.322 19.8262 981.859 20.4707C981.404 21.1087 980.766 21.6003 979.945 21.9453L983.139 27.873V28H980.492L977.641 22.5215ZM974.887 20.5391H977.426C978.259 20.5391 978.91 20.3307 979.379 19.9141C979.848 19.4909 980.082 18.9147 980.082 18.1855C980.082 17.4238 979.864 16.8346 979.428 16.418C978.998 16.0013 978.354 15.7865 977.494 15.7734H974.887V20.5391ZM989.32 28.1953C987.816 28.1953 986.596 27.7233 985.658 26.7793C984.727 25.8288 984.262 24.5658 984.262 22.9902V22.6973C984.262 21.6426 984.464 20.7018 984.867 19.875C985.277 19.0417 985.85 18.3939 986.586 17.9316C987.322 17.4694 988.142 17.2383 989.047 17.2383C990.486 17.2383 991.596 17.6973 992.377 18.6152C993.165 19.5332 993.559 20.832 993.559 22.5117V23.4688H986.654C986.726 24.3411 987.016 25.0312 987.523 25.5391C988.038 26.0469 988.682 26.3008 989.457 26.3008C990.544 26.3008 991.43 25.8613 992.113 24.9824L993.393 26.2031C992.969 26.8346 992.403 27.3262 991.693 27.6777C990.99 28.0228 990.199 28.1953 989.32 28.1953ZM989.037 19.1426C988.386 19.1426 987.859 19.3704 987.455 19.8262C987.058 20.2819 986.804 20.9167 986.693 21.7305H991.215V21.5547C991.163 20.7604 990.951 20.1615 990.58 19.7578C990.209 19.3477 989.695 19.1426 989.037 19.1426ZM999.75 26.3008C1000.34 26.3008 1000.83 26.1283 1001.22 25.7832C1001.62 25.4382 1001.82 25.0117 1001.85 24.5039H1004.09C1004.06 25.1615 1003.85 25.7767 1003.47 26.3496C1003.09 26.916 1002.57 27.3652 1001.91 27.6973C1001.25 28.0293 1000.54 28.1953 999.779 28.1953C998.301 28.1953 997.13 27.7168 996.264 26.7598C995.398 25.8027 994.965 24.4811 994.965 22.7949V22.5508C994.965 20.9427 995.395 19.6569 996.254 18.6934C997.113 17.7233 998.285 17.2383 999.77 17.2383C1001.03 17.2383 1002.05 17.6061 1002.84 18.3418C1003.63 19.071 1004.05 20.0312 1004.09 21.2227H1001.85C1001.82 20.6172 1001.62 20.1191 1001.22 19.7285C1000.84 19.3379 1000.35 19.1426 999.75 19.1426C998.982 19.1426 998.389 19.4225 997.973 19.9824C997.556 20.5358 997.344 21.3789 997.338 22.5117V22.8926C997.338 24.0384 997.543 24.8945 997.953 25.4609C998.37 26.0208 998.969 26.3008 999.75 26.3008ZM1010.53 28.1953C1009.03 28.1953 1007.81 27.7233 1006.87 26.7793C1005.94 25.8288 1005.47 24.5658 1005.47 22.9902V22.6973C1005.47 21.6426 1005.67 20.7018 1006.08 19.875C1006.49 19.0417 1007.06 18.3939 1007.8 17.9316C1008.53 17.4694 1009.35 17.2383 1010.26 17.2383C1011.7 17.2383 1012.81 17.6973 1013.59 18.6152C1014.38 19.5332 1014.77 20.832 1014.77 22.5117V23.4688H1007.87C1007.94 24.3411 1008.23 25.0312 1008.73 25.5391C1009.25 26.0469 1009.89 26.3008 1010.67 26.3008C1011.76 26.3008 1012.64 25.8613 1013.32 24.9824L1014.6 26.2031C1014.18 26.8346 1013.61 27.3262 1012.9 27.6777C1012.2 28.0228 1011.41 28.1953 1010.53 28.1953ZM1010.25 19.1426C1009.6 19.1426 1009.07 19.3704 1008.67 19.8262C1008.27 20.2819 1008.01 20.9167 1007.9 21.7305H1012.43V21.5547C1012.37 20.7604 1012.16 20.1615 1011.79 19.7578C1011.42 19.3477 1010.91 19.1426 1010.25 19.1426ZM1019.14 28H1016.77V17.4336H1019.14V28ZM1016.62 14.6895C1016.62 14.3249 1016.74 14.0221 1016.97 13.7812C1017.2 13.5404 1017.53 13.4199 1017.96 13.4199C1018.39 13.4199 1018.72 13.5404 1018.96 13.7812C1019.19 14.0221 1019.31 14.3249 1019.31 14.6895C1019.31 15.0475 1019.19 15.347 1018.96 15.5879C1018.72 15.8223 1018.39 15.9395 1017.96 15.9395C1017.53 15.9395 1017.2 15.8223 1016.97 15.5879C1016.74 15.347 1016.62 15.0475 1016.62 14.6895ZM1025.46 24.9922L1027.7 17.4336H1030.15L1026.49 28H1024.43L1020.74 17.4336H1023.2L1025.46 24.9922ZM1036.16 28.1953C1034.65 28.1953 1033.43 27.7233 1032.49 26.7793C1031.56 25.8288 1031.1 24.5658 1031.1 22.9902V22.6973C1031.1 21.6426 1031.3 20.7018 1031.7 19.875C1032.11 19.0417 1032.69 18.3939 1033.42 17.9316C1034.16 17.4694 1034.98 17.2383 1035.88 17.2383C1037.32 17.2383 1038.43 17.6973 1039.21 18.6152C1040 19.5332 1040.39 20.832 1040.39 22.5117V23.4688H1033.49C1033.56 24.3411 1033.85 25.0312 1034.36 25.5391C1034.87 26.0469 1035.52 26.3008 1036.29 26.3008C1037.38 26.3008 1038.27 25.8613 1038.95 24.9824L1040.23 26.2031C1039.81 26.8346 1039.24 27.3262 1038.53 27.6777C1037.83 28.0228 1037.04 28.1953 1036.16 28.1953ZM1035.87 19.1426C1035.22 19.1426 1034.69 19.3704 1034.29 19.8262C1033.89 20.2819 1033.64 20.9167 1033.53 21.7305H1038.05V21.5547C1038 20.7604 1037.79 20.1615 1037.42 19.7578C1037.04 19.3477 1036.53 19.1426 1035.87 19.1426Z" fill="#122504"/>
</svg>